<?xml version="1.0" encoding="UTF-8"?>
<!DOCTYPE svg PUBLIC "-//W3C//DTD SVG 1.1//EN" "http://www.w3.org/Graphics/SVG/1.1/DTD/svg11.dtd">
<!-- Creator: CorelDRAW 2018 (64 Bit) -->
<svg xmlns="http://www.w3.org/2000/svg" xml:space="preserve" width="40px" height="40px" version="1.1" style="shape-rendering:geometricPrecision; text-rendering:geometricPrecision; image-rendering:optimizeQuality; fill-rule:evenodd; clip-rule:evenodd"
viewBox="0 0 2850 2850"
 xmlns:xlink="http://www.w3.org/1999/xlink">
 <defs>
  <style type="text/css">
   <![CDATA[
    .fil2 {fill:none}
    .fil0 {fill:#3F2D94}
    .fil1 {fill:#5822DC;fill-rule:nonzero}
   ]]>
  </style>
   <clipPath id="id0">
    <path d="M0 0l2850 0 0 2850 -2850 0 0 -2850z"/>
   </clipPath>
 </defs>
 <g id="Camada_x0020_1">
  <metadata id="CorelCorpID_0Corel-Layer"/>
  <polygon class="fil0" points="0,0 2850,0 2850,2850 0,2850 "/>
  <g style="clip-path:url(#id0)">
   <g id="_1903512503136">
    <g>
     <path id="1" class="fil1" d="M-5630 -2830c390,0 740,160 990,420 260,250 420,610 420,990 0,390 -160,750 -420,1000 -250,260 -600,420 -990,420 -390,0 -740,-160 -1000,-420 -260,-250 -420,-610 -420,-1000 0,-380 160,-740 420,-990 260,-260 610,-420 1000,-420zm970 440c-250,-250 -590,-400 -970,-400 -380,0 -720,150 -970,400 -250,250 -410,600 -410,970 0,380 160,730 410,980 250,240 590,400 970,400 380,0 720,-160 970,-400 250,-250 400,-600 400,-980 0,-370 -150,-720 -400,-970z"/>
     <path class="fil1" d="M-4240 -1400c-380,0 -720,160 -970,410 -250,250 -400,590 -400,970 0,380 150,720 400,970 250,250 590,400 970,400 380,0 720,-150 970,-400 250,-250 410,-590 410,-970 0,-380 -160,-720 -410,-970 -250,-250 -590,-410 -970,-410zm-1000 380c260,-260 610,-410 1000,-410 390,0 740,150 1000,410 250,260 410,610 410,1000 0,390 -160,740 -410,1000 -260,250 -610,410 -1000,410 -390,0 -740,-160 -1000,-410 -250,-260 -410,-610 -410,-1000 0,-390 160,-740 410,-1000z"/>
     <path class="fil1" d="M-2800 -2830c390,0 740,160 1000,420 250,250 410,610 410,990 0,390 -160,750 -410,1000 -260,260 -610,420 -1000,420 -390,0 -740,-160 -1000,-420 -250,-250 -410,-610 -410,-1000 0,-380 160,-740 410,-990 260,-260 610,-420 1000,-420zm970 440c-250,-250 -590,-400 -970,-400 -380,0 -720,150 -970,400 -250,250 -410,600 -410,970 0,380 160,730 410,980 250,240 590,400 970,400 380,0 720,-160 970,-400 250,-250 400,-600 400,-980 0,-370 -150,-720 -400,-970z"/>
     <path class="fil1" d="M-1410 -1400c-380,0 -720,160 -970,410 -250,250 -400,590 -400,970 0,380 150,720 400,970 250,250 590,400 970,400 380,0 720,-150 970,-400 250,-250 410,-590 410,-970 0,-380 -160,-720 -410,-970 -250,-250 -590,-410 -970,-410zm-990 380c250,-260 600,-410 990,-410 390,0 740,150 1000,410 260,260 420,610 420,1000 0,390 -160,740 -420,1000 -260,250 -610,410 -1000,410 -390,0 -740,-160 -990,-410 -260,-260 -420,-610 -420,-1000 0,-390 160,-740 420,-1000z"/>
     <path class="fil1" d="M30 -2830c390,0 740,160 1000,420 250,250 410,610 410,990 0,390 -160,750 -410,1000 -260,260 -610,420 -1000,420 -390,0 -740,-160 -1000,-420 -250,-250 -410,-610 -410,-1000 0,-380 160,-740 410,-990 260,-260 610,-420 1000,-420zm970 440c-250,-250 -590,-400 -970,-400 -380,0 -720,150 -970,400 -250,250 -400,600 -400,970 0,380 150,730 400,980 250,240 590,400 970,400 380,0 720,-160 970,-400 250,-250 410,-600 410,-980 0,-370 -160,-720 -410,-970z"/>
     <path class="fil1" d="M1420 -1400c-370,0 -720,160 -970,410 -250,250 -400,590 -400,970 0,380 150,720 400,970 250,250 600,400 970,400 380,0 730,-150 980,-400 250,-250 400,-590 400,-970 0,-380 -150,-720 -400,-970 -250,-250 -600,-410 -980,-410zm-990 380c250,-260 610,-410 990,-410 390,0 750,150 1000,410 260,260 420,610 420,1000 0,390 -160,740 -420,1000 -250,250 -610,410 -1000,410 -380,0 -740,-160 -990,-410 -260,-260 -420,-610 -420,-1000 0,-390 160,-740 420,-1000z"/>
     <path class="fil1" d="M2860 -2830c390,0 740,160 1000,420 260,250 420,610 420,990 0,390 -160,750 -420,1000 -260,260 -610,420 -1000,420 -390,0 -740,-160 -990,-420 -260,-250 -420,-610 -420,-1000 0,-380 160,-740 420,-990 250,-260 600,-420 990,-420zm970 440c-250,-250 -590,-400 -970,-400 -380,0 -720,150 -970,400 -250,250 -400,600 -400,970 0,380 150,730 400,980 250,240 590,400 970,400 380,0 720,-160 970,-400 250,-250 410,-600 410,-980 0,-370 -160,-720 -410,-970z"/>
     <path class="fil1" d="M4260 -1400c-380,0 -730,160 -970,410 -250,250 -410,590 -410,970 0,380 160,720 410,970 240,250 590,400 970,400 370,0 720,-150 970,-400 250,-250 400,-590 400,-970 0,-380 -150,-720 -400,-970 -250,-250 -600,-410 -970,-410zm-1000 380c260,-260 610,-410 1000,-410 390,0 740,150 990,410 260,260 420,610 420,1000 0,390 -160,740 -420,1000 -250,250 -600,410 -990,410 -390,0 -740,-160 -1000,-410 -260,-260 -420,-610 -420,-1000 0,-390 160,-740 420,-1000z"/>
     <path class="fil1" d="M5690 -2830c390,0 750,160 1000,420 260,250 420,610 420,990 0,390 -160,750 -420,1000 -250,260 -610,420 -1000,420 -380,0 -740,-160 -990,-420 -260,-250 -420,-610 -420,-1000 0,-380 160,-740 420,-990 250,-260 610,-420 990,-420zm980 440c-250,-250 -600,-400 -980,-400 -370,0 -720,150 -970,400 -250,250 -400,600 -400,970 0,380 150,730 400,980 250,240 600,400 970,400 380,0 730,-160 980,-400 250,-250 400,-600 400,-980 0,-370 -150,-720 -400,-970z"/>
     <path class="fil1" d="M7090 -1400c-380,0 -720,160 -970,410 -250,250 -410,590 -410,970 0,380 160,720 410,970 250,250 590,400 970,400 380,0 720,-150 970,-400 250,-250 400,-590 400,-970 0,-380 -150,-720 -400,-970 -250,-250 -590,-410 -970,-410zm-1000 380c260,-260 610,-410 1000,-410 390,0 740,150 1000,410 250,260 410,610 410,1000 0,390 -160,740 -410,1000 -260,250 -610,410 -1000,410 -390,0 -740,-160 -1000,-410 -260,-260 -410,-610 -410,-1000 0,-390 150,-740 410,-1000z"/>
     <path class="fil1" d="M8530 -2830c390,0 740,160 990,420 260,250 420,610 420,990 0,390 -160,750 -420,1000 -250,260 -600,420 -990,420 -390,0 -750,-160 -1000,-420 -260,-250 -420,-610 -420,-1000 0,-380 160,-740 420,-990 250,-260 610,-420 1000,-420zm970 440c-250,-250 -600,-400 -970,-400 -380,0 -730,150 -970,400 -250,250 -410,600 -410,970 0,380 160,730 410,980 240,240 590,400 970,400 370,0 720,-160 970,-400 250,-250 400,-600 400,-980 0,-370 -150,-720 -400,-970z"/>
     <path class="fil1" d="M9920 -1400c-380,0 -720,160 -970,410 -250,250 -400,590 -400,970 0,380 150,720 400,970 250,250 590,400 970,400 380,0 720,-150 970,-400 250,-250 410,-590 410,-970 0,-380 -160,-720 -410,-970 -250,-250 -590,-410 -970,-410zm-1000 380c260,-260 610,-410 1000,-410 390,0 740,150 1000,410 250,260 410,610 410,1000 0,390 -160,740 -410,1000 -260,250 -610,410 -1000,410 -390,0 -740,-160 -1000,-410 -250,-260 -410,-610 -410,-1000 0,-390 160,-740 410,-1000z"/>
     <path class="fil1" d="M11360 -2830c390,0 740,160 1000,420 250,250 410,610 410,990 0,390 -160,750 -410,1000 -260,260 -610,420 -1000,420 -390,0 -740,-160 -1000,-420 -260,-250 -410,-610 -410,-1000 0,-380 150,-740 410,-990 260,-260 610,-420 1000,-420zm970 440c-250,-250 -590,-400 -970,-400 -380,0 -720,150 -970,400 -250,250 -410,600 -410,970 0,380 160,730 410,980 250,240 590,400 970,400 380,0 720,-160 970,-400 250,-250 400,-600 400,-980 0,-370 -150,-720 -400,-970z"/>
     <path class="fil1" d="M12750 -1400c-380,0 -720,160 -970,410 -250,250 -400,590 -400,970 0,380 150,720 400,970 250,250 590,400 970,400 380,0 720,-150 970,-400 250,-250 410,-590 410,-970 0,-380 -160,-720 -410,-970 -250,-250 -590,-410 -970,-410zm-1000 380c260,-260 610,-410 1000,-410 390,0 740,150 1000,410 260,260 410,610 410,1000 0,390 -150,740 -410,1000 -260,250 -610,410 -1000,410 -390,0 -740,-160 -1000,-410 -250,-260 -410,-610 -410,-1000 0,-390 160,-740 410,-1000z"/>
     <path class="fil1" d="M14190 -2830c390,0 740,160 1000,420 250,250 410,610 410,990 0,390 -160,750 -410,1000 -260,260 -610,420 -1000,420 -390,0 -740,-160 -1000,-420 -250,-250 -410,-610 -410,-1000 0,-380 160,-740 410,-990 260,-260 610,-420 1000,-420zm970 440c-250,-250 -590,-400 -970,-400 -380,0 -720,150 -970,400 -250,250 -400,600 -400,970 0,380 150,730 400,980 250,240 590,400 970,400 380,0 720,-160 970,-400 250,-250 410,-600 410,-980 0,-370 -160,-720 -410,-970z"/>
     <path class="fil1" d="M15580 -1400c-370,0 -720,160 -970,410 -250,250 -400,590 -400,970 0,380 150,720 400,970 250,250 600,400 970,400 380,0 730,-150 980,-400 240,-250 400,-590 400,-970 0,-380 -160,-720 -400,-970 -250,-250 -600,-410 -980,-410zm-990 380c250,-260 610,-410 990,-410 390,0 750,150 1000,410 260,260 420,610 420,1000 0,390 -160,740 -420,1000 -250,250 -610,410 -1000,410 -380,0 -740,-160 -990,-410 -260,-260 -420,-610 -420,-1000 0,-390 160,-740 420,-1000z"/>
     <path class="fil1" d="M17020 -2830c390,0 740,160 1000,420 260,250 410,610 410,990 0,390 -150,750 -410,1000 -260,260 -610,420 -1000,420 -390,0 -740,-160 -1000,-420 -250,-250 -410,-610 -410,-1000 0,-380 160,-740 410,-990 260,-260 610,-420 1000,-420zm970 440c-250,-250 -590,-400 -970,-400 -380,0 -720,150 -970,400 -250,250 -400,600 -400,970 0,380 150,730 400,980 250,240 590,400 970,400 380,0 720,-160 970,-400 250,-250 410,-600 410,-980 0,-370 -160,-720 -410,-970z"/>
     <path class="fil1" d="M18420 -1400c-380,0 -730,160 -980,410 -240,250 -400,590 -400,970 0,380 160,720 400,970 250,250 600,400 980,400 370,0 720,-150 970,-400 250,-250 400,-590 400,-970 0,-380 -150,-720 -400,-970 -250,-250 -600,-410 -970,-410zm-1000 380c250,-260 610,-410 1000,-410 380,0 740,150 990,410 260,260 420,610 420,1000 0,390 -160,740 -420,1000 -250,250 -610,410 -990,410 -390,0 -750,-160 -1000,-410 -260,-260 -420,-610 -420,-1000 0,-390 160,-740 420,-1000z"/>
     <path class="fil1" d="M19850 -2830c390,0 750,160 1000,420 260,250 420,610 420,990 0,390 -160,750 -420,1000 -250,260 -610,420 -1000,420 -380,0 -740,-160 -990,-420 -260,-250 -420,-610 -420,-1000 0,-380 160,-740 420,-990 250,-260 610,-420 990,-420zm980 440c-250,-250 -600,-400 -980,-400 -370,0 -720,150 -970,400 -250,250 -400,600 -400,970 0,380 150,730 400,980 250,240 600,400 970,400 380,0 730,-160 980,-400 240,-250 400,-600 400,-980 0,-370 -160,-720 -400,-970z"/>
     <path class="fil1" d="M21250 -1400c-380,0 -720,160 -970,410 -250,250 -410,590 -410,970 0,380 160,720 410,970 250,250 590,400 970,400 380,0 720,-150 970,-400 250,-250 400,-590 400,-970 0,-380 -150,-720 -400,-970 -250,-250 -590,-410 -970,-410zm-1000 380c260,-260 610,-410 1000,-410 390,0 740,150 1000,410 250,260 410,610 410,1000 0,390 -160,740 -410,1000 -260,250 -610,410 -1000,410 -390,0 -740,-160 -1000,-410 -260,-260 -410,-610 -410,-1000 0,-390 150,-740 410,-1000z"/>
     <path class="fil1" d="M22690 -2830c380,0 740,160 990,420 260,250 420,610 420,990 0,390 -160,750 -420,1000 -250,260 -610,420 -990,420 -390,0 -750,-160 -1000,-420 -260,-250 -420,-610 -420,-1000 0,-380 160,-740 420,-990 250,-260 610,-420 1000,-420zm970 440c-250,-250 -600,-400 -970,-400 -380,0 -730,150 -980,400 -240,250 -400,600 -400,970 0,380 160,730 400,980 250,240 600,400 980,400 370,0 720,-160 970,-400 250,-250 400,-600 400,-980 0,-370 -150,-720 -400,-970z"/>
     <path class="fil1" d="M24080 -1400c-380,0 -720,160 -970,410 -250,250 -410,590 -410,970 0,380 160,720 410,970 250,250 590,400 970,400 380,0 720,-150 970,-400 250,-250 410,-590 410,-970 0,-380 -160,-720 -410,-970 -250,-250 -590,-410 -970,-410zm-1000 380c260,-260 610,-410 1000,-410 390,0 740,150 1000,410 250,260 410,610 410,1000 0,390 -160,740 -410,1000 -260,250 -610,410 -1000,410 -390,0 -740,-160 -1000,-410 -250,-260 -410,-610 -410,-1000 0,-390 160,-740 410,-1000z"/>
     <path class="fil1" d="M-5630 10c390,0 740,160 990,410 260,260 420,610 420,1000 0,390 -160,740 -420,1000 -250,250 -600,410 -990,410 -390,0 -740,-160 -1000,-410 -260,-260 -420,-610 -420,-1000 0,-390 160,-740 420,-1000 260,-250 610,-410 1000,-410zm970 440c-250,-250 -590,-410 -970,-410 -380,0 -720,160 -970,410 -250,250 -410,590 -410,970 0,380 160,720 410,970 250,250 590,400 970,400 380,0 720,-150 970,-400 250,-250 400,-590 400,-970 0,-380 -150,-720 -400,-970z"/>
     <path class="fil1" d="M-4240 1440c-380,0 -720,150 -970,400 -250,250 -400,590 -400,970 0,380 150,730 400,970 250,250 590,410 970,410 380,0 720,-160 970,-410 250,-240 410,-590 410,-970 0,-380 -160,-720 -410,-970 -250,-250 -590,-400 -970,-400zm-1000 380c260,-260 610,-420 1000,-420 390,0 740,160 1000,420 250,250 410,600 410,990 0,390 -160,740 -410,1000 -260,260 -610,420 -1000,420 -390,0 -740,-160 -1000,-420 -250,-260 -410,-610 -410,-1000 0,-390 160,-740 410,-990z"/>
     <path class="fil1" d="M-2800 10c390,0 740,160 1000,410 250,260 410,610 410,1000 0,390 -160,740 -410,1000 -260,250 -610,410 -1000,410 -390,0 -740,-160 -1000,-410 -250,-260 -410,-610 -410,-1000 0,-390 160,-740 410,-1000 260,-250 610,-410 1000,-410zm970 440c-250,-250 -590,-410 -970,-410 -380,0 -720,160 -970,410 -250,250 -410,590 -410,970 0,380 160,720 410,970 250,250 590,400 970,400 380,0 720,-150 970,-400 250,-250 400,-590 400,-970 0,-380 -150,-720 -400,-970z"/>
     <path class="fil1" d="M-1410 1440c-380,0 -720,150 -970,400 -250,250 -400,590 -400,970 0,380 150,730 400,970 250,250 590,410 970,410 380,0 720,-160 970,-410 250,-240 410,-590 410,-970 0,-380 -160,-720 -410,-970 -250,-250 -590,-400 -970,-400zm-990 380c250,-260 600,-420 990,-420 390,0 740,160 1000,420 260,250 420,600 420,990 0,390 -160,740 -420,1000 -260,260 -610,420 -1000,420 -390,0 -740,-160 -990,-420 -260,-260 -420,-610 -420,-1000 0,-390 160,-740 420,-990z"/>
     <path class="fil1" d="M30 10c390,0 740,160 1000,410 250,260 410,610 410,1000 0,390 -160,740 -410,1000 -260,250 -610,410 -1000,410 -390,0 -740,-160 -1000,-410 -250,-260 -410,-610 -410,-1000 0,-390 160,-740 410,-1000 260,-250 610,-410 1000,-410zm970 440c-250,-250 -590,-410 -970,-410 -380,0 -720,160 -970,410 -250,250 -400,590 -400,970 0,380 150,720 400,970 250,250 590,400 970,400 380,0 720,-150 970,-400 250,-250 410,-590 410,-970 0,-380 -160,-720 -410,-970z"/>
     <path class="fil1" d="M1420 1440c-370,0 -720,150 -970,400 -250,250 -400,590 -400,970 0,380 150,730 400,970 250,250 600,410 970,410 380,0 730,-160 980,-410 250,-240 400,-590 400,-970 0,-380 -150,-720 -400,-970 -250,-250 -600,-400 -980,-400zm-990 380c250,-260 610,-420 990,-420 390,0 750,160 1000,420 260,250 420,600 420,990 0,390 -160,740 -420,1000 -250,260 -610,420 -1000,420 -380,0 -740,-160 -990,-420 -260,-260 -420,-610 -420,-1000 0,-390 160,-740 420,-990z"/>
     <path class="fil1" d="M2860 10c390,0 740,160 1000,410 260,260 420,610 420,1000 0,390 -160,740 -420,1000 -260,250 -610,410 -1000,410 -390,0 -740,-160 -990,-410 -260,-260 -420,-610 -420,-1000 0,-390 160,-740 420,-1000 250,-250 600,-410 990,-410zm970 440c-250,-250 -590,-410 -970,-410 -380,0 -720,160 -970,410 -250,250 -400,590 -400,970 0,380 150,720 400,970 250,250 590,400 970,400 380,0 720,-150 970,-400 250,-250 410,-590 410,-970 0,-380 -160,-720 -410,-970z"/>
     <path class="fil1" d="M4260 1440c-380,0 -730,150 -970,400 -250,250 -410,590 -410,970 0,380 160,730 410,970 240,250 590,410 970,410 370,0 720,-160 970,-410 250,-240 400,-590 400,-970 0,-380 -150,-720 -400,-970 -250,-250 -600,-400 -970,-400zm-1000 380c260,-260 610,-420 1000,-420 390,0 740,160 990,420 260,250 420,600 420,990 0,390 -160,740 -420,1000 -250,260 -600,420 -990,420 -390,0 -740,-160 -1000,-420 -260,-260 -420,-610 -420,-1000 0,-390 160,-740 420,-990z"/>
     <path class="fil1" d="M5690 10c390,0 750,160 1000,410 260,260 420,610 420,1000 0,390 -160,740 -420,1000 -250,250 -610,410 -1000,410 -380,0 -740,-160 -990,-410 -260,-260 -420,-610 -420,-1000 0,-390 160,-740 420,-1000 250,-250 610,-410 990,-410zm980 440c-250,-250 -600,-410 -980,-410 -370,0 -720,160 -970,410 -250,250 -400,590 -400,970 0,380 150,720 400,970 250,250 600,400 970,400 380,0 730,-150 980,-400 250,-250 400,-590 400,-970 0,-380 -150,-720 -400,-970z"/>
     <path class="fil1" d="M7090 1440c-380,0 -720,150 -970,400 -250,250 -410,590 -410,970 0,380 160,730 410,970 250,250 590,410 970,410 380,0 720,-160 970,-410 250,-240 400,-590 400,-970 0,-380 -150,-720 -400,-970 -250,-250 -590,-400 -970,-400zm-1000 380c260,-260 610,-420 1000,-420 390,0 740,160 1000,420 250,250 410,600 410,990 0,390 -160,740 -410,1000 -260,260 -610,420 -1000,420 -390,0 -740,-160 -1000,-420 -260,-260 -410,-610 -410,-1000 0,-390 150,-740 410,-990z"/>
     <path class="fil1" d="M8530 10c390,0 740,160 990,410 260,260 420,610 420,1000 0,390 -160,740 -420,1000 -250,250 -600,410 -990,410 -390,0 -750,-160 -1000,-410 -260,-260 -420,-610 -420,-1000 0,-390 160,-740 420,-1000 250,-250 610,-410 1000,-410zm970 440c-250,-250 -600,-410 -970,-410 -380,0 -730,160 -970,410 -250,250 -410,590 -410,970 0,380 160,720 410,970 240,250 590,400 970,400 370,0 720,-150 970,-400 250,-250 400,-590 400,-970 0,-380 -150,-720 -400,-970z"/>
     <path class="fil1" d="M9920 1440c-380,0 -720,150 -970,400 -250,250 -400,590 -400,970 0,380 150,730 400,970 250,250 590,410 970,410 380,0 720,-160 970,-410 250,-240 410,-590 410,-970 0,-380 -160,-720 -410,-970 -250,-250 -590,-400 -970,-400zm-1000 380c260,-260 610,-420 1000,-420 390,0 740,160 1000,420 250,250 410,600 410,990 0,390 -160,740 -410,1000 -260,260 -610,420 -1000,420 -390,0 -740,-160 -1000,-420 -250,-260 -410,-610 -410,-1000 0,-390 160,-740 410,-990z"/>
     <path class="fil1" d="M11360 10c390,0 740,160 1000,410 250,260 410,610 410,1000 0,390 -160,740 -410,1000 -260,250 -610,410 -1000,410 -390,0 -740,-160 -1000,-410 -260,-260 -410,-610 -410,-1000 0,-390 150,-740 410,-1000 260,-250 610,-410 1000,-410zm970 440c-250,-250 -590,-410 -970,-410 -380,0 -720,160 -970,410 -250,250 -410,590 -410,970 0,380 160,720 410,970 250,250 590,400 970,400 380,0 720,-150 970,-400 250,-250 400,-590 400,-970 0,-380 -150,-720 -400,-970z"/>
     <path class="fil1" d="M12750 1440c-380,0 -720,150 -970,400 -250,250 -400,590 -400,970 0,380 150,730 400,970 250,250 590,410 970,410 380,0 720,-160 970,-410 250,-240 410,-590 410,-970 0,-380 -160,-720 -410,-970 -250,-250 -590,-400 -970,-400zm-1000 380c260,-260 610,-420 1000,-420 390,0 740,160 1000,420 260,250 410,600 410,990 0,390 -150,740 -410,1000 -260,260 -610,420 -1000,420 -390,0 -740,-160 -1000,-420 -250,-260 -410,-610 -410,-1000 0,-390 160,-740 410,-990z"/>
     <path class="fil1" d="M14190 10c390,0 740,160 1000,410 250,260 410,610 410,1000 0,390 -160,740 -410,1000 -260,250 -610,410 -1000,410 -390,0 -740,-160 -1000,-410 -250,-260 -410,-610 -410,-1000 0,-390 160,-740 410,-1000 260,-250 610,-410 1000,-410zm970 440c-250,-250 -590,-410 -970,-410 -380,0 -720,160 -970,410 -250,250 -400,590 -400,970 0,380 150,720 400,970 250,250 590,400 970,400 380,0 720,-150 970,-400 250,-250 410,-590 410,-970 0,-380 -160,-720 -410,-970z"/>
     <path class="fil1" d="M15580 1440c-370,0 -720,150 -970,400 -250,250 -400,590 -400,970 0,380 150,730 400,970 250,250 600,410 970,410 380,0 730,-160 980,-410 240,-240 400,-590 400,-970 0,-380 -160,-720 -400,-970 -250,-250 -600,-400 -980,-400zm-990 380c250,-260 610,-420 990,-420 390,0 750,160 1000,420 260,250 420,600 420,990 0,390 -160,740 -420,1000 -250,260 -610,420 -1000,420 -380,0 -740,-160 -990,-420 -260,-260 -420,-610 -420,-1000 0,-390 160,-740 420,-990z"/>
     <path class="fil1" d="M17020 10c390,0 740,160 1000,410 260,260 410,610 410,1000 0,390 -150,740 -410,1000 -260,250 -610,410 -1000,410 -390,0 -740,-160 -1000,-410 -250,-260 -410,-610 -410,-1000 0,-390 160,-740 410,-1000 260,-250 610,-410 1000,-410zm970 440c-250,-250 -590,-410 -970,-410 -380,0 -720,160 -970,410 -250,250 -400,590 -400,970 0,380 150,720 400,970 250,250 590,400 970,400 380,0 720,-150 970,-400 250,-250 410,-590 410,-970 0,-380 -160,-720 -410,-970z"/>
     <path class="fil1" d="M18420 1440c-380,0 -730,150 -980,400 -240,250 -400,590 -400,970 0,380 160,730 400,970 250,250 600,410 980,410 370,0 720,-160 970,-410 250,-240 400,-590 400,-970 0,-380 -150,-720 -400,-970 -250,-250 -600,-400 -970,-400zm-1000 380c250,-260 610,-420 1000,-420 380,0 740,160 990,420 260,250 420,600 420,990 0,390 -160,740 -420,1000 -250,260 -610,420 -990,420 -390,0 -750,-160 -1000,-420 -260,-260 -420,-610 -420,-1000 0,-390 160,-740 420,-990z"/>
     <path class="fil1" d="M19850 10c390,0 750,160 1000,410 260,260 420,610 420,1000 0,390 -160,740 -420,1000 -250,250 -610,410 -1000,410 -380,0 -740,-160 -990,-410 -260,-260 -420,-610 -420,-1000 0,-390 160,-740 420,-1000 250,-250 610,-410 990,-410zm980 440c-250,-250 -600,-410 -980,-410 -370,0 -720,160 -970,410 -250,250 -400,590 -400,970 0,380 150,720 400,970 250,250 600,400 970,400 380,0 730,-150 980,-400 240,-250 400,-590 400,-970 0,-380 -160,-720 -400,-970z"/>
     <path class="fil1" d="M21250 1440c-380,0 -720,150 -970,400 -250,250 -410,590 -410,970 0,380 160,730 410,970 250,250 590,410 970,410 380,0 720,-160 970,-410 250,-240 400,-590 400,-970 0,-380 -150,-720 -400,-970 -250,-250 -590,-400 -970,-400zm-1000 380c260,-260 610,-420 1000,-420 390,0 740,160 1000,420 250,250 410,600 410,990 0,390 -160,740 -410,1000 -260,260 -610,420 -1000,420 -390,0 -740,-160 -1000,-420 -260,-260 -410,-610 -410,-1000 0,-390 150,-740 410,-990z"/>
     <path class="fil1" d="M22690 10c380,0 740,160 990,410 260,260 420,610 420,1000 0,390 -160,740 -420,1000 -250,250 -610,410 -990,410 -390,0 -750,-160 -1000,-410 -260,-260 -420,-610 -420,-1000 0,-390 160,-740 420,-1000 250,-250 610,-410 1000,-410zm970 440c-250,-250 -600,-410 -970,-410 -380,0 -730,160 -980,410 -240,250 -400,590 -400,970 0,380 160,720 400,970 250,250 600,400 980,400 370,0 720,-150 970,-400 250,-250 400,-590 400,-970 0,-380 -150,-720 -400,-970z"/>
     <path class="fil1" d="M24080 1440c-380,0 -720,150 -970,400 -250,250 -410,590 -410,970 0,380 160,730 410,970 250,250 590,410 970,410 380,0 720,-160 970,-410 250,-240 410,-590 410,-970 0,-380 -160,-720 -410,-970 -250,-250 -590,-400 -970,-400zm-1000 380c260,-260 610,-420 1000,-420 390,0 740,160 1000,420 250,250 410,600 410,990 0,390 -160,740 -410,1000 -260,260 -610,420 -1000,420 -390,0 -740,-160 -1000,-420 -250,-260 -410,-610 -410,-1000 0,-390 160,-740 410,-990z"/>
     <path class="fil1" d="M-5630 2840c390,0 740,160 990,420 260,250 420,610 420,990 0,390 -160,750 -420,1000 -250,260 -600,420 -990,420 -390,0 -740,-160 -1000,-420 -260,-250 -420,-610 -420,-1000 0,-380 160,-740 420,-990 260,-260 610,-420 1000,-420zm970 440c-250,-250 -590,-400 -970,-400 -380,0 -720,150 -970,400 -250,250 -410,600 -410,970 0,380 160,730 410,980 250,240 590,400 970,400 380,0 720,-160 970,-400 250,-250 400,-600 400,-980 0,-370 -150,-720 -400,-970z"/>
     <path class="fil1" d="M-4240 4270c-380,0 -720,160 -970,410 -250,250 -400,590 -400,970 0,380 150,720 400,970 250,250 590,400 970,400 380,0 720,-150 970,-400 250,-250 410,-590 410,-970 0,-380 -160,-720 -410,-970 -250,-250 -590,-410 -970,-410zm-1000 380c260,-260 610,-410 1000,-410 390,0 740,150 1000,410 250,260 410,610 410,1000 0,390 -160,740 -410,1000 -260,250 -610,410 -1000,410 -390,0 -740,-160 -1000,-410 -250,-260 -410,-610 -410,-1000 0,-390 160,-740 410,-1000z"/>
     <path class="fil1" d="M-2800 2840c390,0 740,160 1000,420 250,250 410,610 410,990 0,390 -160,750 -410,1000 -260,260 -610,420 -1000,420 -390,0 -740,-160 -1000,-420 -250,-250 -410,-610 -410,-1000 0,-380 160,-740 410,-990 260,-260 610,-420 1000,-420zm970 440c-250,-250 -590,-400 -970,-400 -380,0 -720,150 -970,400 -250,250 -410,600 -410,970 0,380 160,730 410,980 250,240 590,400 970,400 380,0 720,-160 970,-400 250,-250 400,-600 400,-980 0,-370 -150,-720 -400,-970z"/>
     <path class="fil1" d="M-1410 4270c-380,0 -720,160 -970,410 -250,250 -400,590 -400,970 0,380 150,720 400,970 250,250 590,400 970,400 380,0 720,-150 970,-400 250,-250 410,-590 410,-970 0,-380 -160,-720 -410,-970 -250,-250 -590,-410 -970,-410zm-990 380c250,-260 600,-410 990,-410 390,0 740,150 1000,410 260,260 420,610 420,1000 0,390 -160,740 -420,1000 -260,250 -610,410 -1000,410 -390,0 -740,-160 -990,-410 -260,-260 -420,-610 -420,-1000 0,-390 160,-740 420,-1000z"/>
     <path class="fil1" d="M30 2840c390,0 740,160 1000,420 250,250 410,610 410,990 0,390 -160,750 -410,1000 -260,260 -610,420 -1000,420 -390,0 -740,-160 -1000,-420 -250,-250 -410,-610 -410,-1000 0,-380 160,-740 410,-990 260,-260 610,-420 1000,-420zm970 440c-250,-250 -590,-400 -970,-400 -380,0 -720,150 -970,400 -250,250 -400,600 -400,970 0,380 150,730 400,980 250,240 590,400 970,400 380,0 720,-160 970,-400 250,-250 410,-600 410,-980 0,-370 -160,-720 -410,-970z"/>
     <path class="fil1" d="M1420 4270c-370,0 -720,160 -970,410 -250,250 -400,590 -400,970 0,380 150,720 400,970 250,250 600,400 970,400 380,0 730,-150 980,-400 250,-250 400,-590 400,-970 0,-380 -150,-720 -400,-970 -250,-250 -600,-410 -980,-410zm-990 380c250,-260 610,-410 990,-410 390,0 750,150 1000,410 260,260 420,610 420,1000 0,390 -160,740 -420,1000 -250,250 -610,410 -1000,410 -380,0 -740,-160 -990,-410 -260,-260 -420,-610 -420,-1000 0,-390 160,-740 420,-1000z"/>
     <path class="fil1" d="M2860 2840c390,0 740,160 1000,420 260,250 420,610 420,990 0,390 -160,750 -420,1000 -260,260 -610,420 -1000,420 -390,0 -740,-160 -990,-420 -260,-250 -420,-610 -420,-1000 0,-380 160,-740 420,-990 250,-260 600,-420 990,-420zm970 440c-250,-250 -590,-400 -970,-400 -380,0 -720,150 -970,400 -250,250 -400,600 -400,970 0,380 150,730 400,980 250,240 590,400 970,400 380,0 720,-160 970,-400 250,-250 410,-600 410,-980 0,-370 -160,-720 -410,-970z"/>
     <path class="fil1" d="M4260 4270c-380,0 -730,160 -970,410 -250,250 -410,590 -410,970 0,380 160,720 410,970 240,250 590,400 970,400 370,0 720,-150 970,-400 250,-250 400,-590 400,-970 0,-380 -150,-720 -400,-970 -250,-250 -600,-410 -970,-410zm-1000 380c260,-260 610,-410 1000,-410 390,0 740,150 990,410 260,260 420,610 420,1000 0,390 -160,740 -420,1000 -250,250 -600,410 -990,410 -390,0 -740,-160 -1000,-410 -260,-260 -420,-610 -420,-1000 0,-390 160,-740 420,-1000z"/>
     <path class="fil1" d="M5690 2840c390,0 750,160 1000,420 260,250 420,610 420,990 0,390 -160,750 -420,1000 -250,260 -610,420 -1000,420 -380,0 -740,-160 -990,-420 -260,-250 -420,-610 -420,-1000 0,-380 160,-740 420,-990 250,-260 610,-420 990,-420zm980 440c-250,-250 -600,-400 -980,-400 -370,0 -720,150 -970,400 -250,250 -400,600 -400,970 0,380 150,730 400,980 250,240 600,400 970,400 380,0 730,-160 980,-400 250,-250 400,-600 400,-980 0,-370 -150,-720 -400,-970z"/>
     <path class="fil1" d="M7090 4270c-380,0 -720,160 -970,410 -250,250 -410,590 -410,970 0,380 160,720 410,970 250,250 590,400 970,400 380,0 720,-150 970,-400 250,-250 400,-590 400,-970 0,-380 -150,-720 -400,-970 -250,-250 -590,-410 -970,-410zm-1000 380c260,-260 610,-410 1000,-410 390,0 740,150 1000,410 250,260 410,610 410,1000 0,390 -160,740 -410,1000 -260,250 -610,410 -1000,410 -390,0 -740,-160 -1000,-410 -260,-260 -410,-610 -410,-1000 0,-390 150,-740 410,-1000z"/>
     <path class="fil1" d="M8530 2840c390,0 740,160 990,420 260,250 420,610 420,990 0,390 -160,750 -420,1000 -250,260 -600,420 -990,420 -390,0 -750,-160 -1000,-420 -260,-250 -420,-610 -420,-1000 0,-380 160,-740 420,-990 250,-260 610,-420 1000,-420zm970 440c-250,-250 -600,-400 -970,-400 -380,0 -730,150 -970,400 -250,250 -410,600 -410,970 0,380 160,730 410,980 240,240 590,400 970,400 370,0 720,-160 970,-400 250,-250 400,-600 400,-980 0,-370 -150,-720 -400,-970z"/>
     <path class="fil1" d="M9920 4270c-380,0 -720,160 -970,410 -250,250 -400,590 -400,970 0,380 150,720 400,970 250,250 590,400 970,400 380,0 720,-150 970,-400 250,-250 410,-590 410,-970 0,-380 -160,-720 -410,-970 -250,-250 -590,-410 -970,-410zm-1000 380c260,-260 610,-410 1000,-410 390,0 740,150 1000,410 250,260 410,610 410,1000 0,390 -160,740 -410,1000 -260,250 -610,410 -1000,410 -390,0 -740,-160 -1000,-410 -250,-260 -410,-610 -410,-1000 0,-390 160,-740 410,-1000z"/>
     <path class="fil1" d="M11360 2840c390,0 740,160 1000,420 250,250 410,610 410,990 0,390 -160,750 -410,1000 -260,260 -610,420 -1000,420 -390,0 -740,-160 -1000,-420 -260,-250 -410,-610 -410,-1000 0,-380 150,-740 410,-990 260,-260 610,-420 1000,-420zm970 440c-250,-250 -590,-400 -970,-400 -380,0 -720,150 -970,400 -250,250 -410,600 -410,970 0,380 160,730 410,980 250,240 590,400 970,400 380,0 720,-160 970,-400 250,-250 400,-600 400,-980 0,-370 -150,-720 -400,-970z"/>
     <path class="fil1" d="M12750 4270c-380,0 -720,160 -970,410 -250,250 -400,590 -400,970 0,380 150,720 400,970 250,250 590,400 970,400 380,0 720,-150 970,-400 250,-250 410,-590 410,-970 0,-380 -160,-720 -410,-970 -250,-250 -590,-410 -970,-410zm-1000 380c260,-260 610,-410 1000,-410 390,0 740,150 1000,410 260,260 410,610 410,1000 0,390 -150,740 -410,1000 -260,250 -610,410 -1000,410 -390,0 -740,-160 -1000,-410 -250,-260 -410,-610 -410,-1000 0,-390 160,-740 410,-1000z"/>
     <path class="fil1" d="M14190 2840c390,0 740,160 1000,420 250,250 410,610 410,990 0,390 -160,750 -410,1000 -260,260 -610,420 -1000,420 -390,0 -740,-160 -1000,-420 -250,-250 -410,-610 -410,-1000 0,-380 160,-740 410,-990 260,-260 610,-420 1000,-420zm970 440c-250,-250 -590,-400 -970,-400 -380,0 -720,150 -970,400 -250,250 -400,600 -400,970 0,380 150,730 400,980 250,240 590,400 970,400 380,0 720,-160 970,-400 250,-250 410,-600 410,-980 0,-370 -160,-720 -410,-970z"/>
     <path class="fil1" d="M15580 4270c-370,0 -720,160 -970,410 -250,250 -400,590 -400,970 0,380 150,720 400,970 250,250 600,400 970,400 380,0 730,-150 980,-400 240,-250 400,-590 400,-970 0,-380 -160,-720 -400,-970 -250,-250 -600,-410 -980,-410zm-990 380c250,-260 610,-410 990,-410 390,0 750,150 1000,410 260,260 420,610 420,1000 0,390 -160,740 -420,1000 -250,250 -610,410 -1000,410 -380,0 -740,-160 -990,-410 -260,-260 -420,-610 -420,-1000 0,-390 160,-740 420,-1000z"/>
     <path class="fil1" d="M17020 2840c390,0 740,160 1000,420 260,250 410,610 410,990 0,390 -150,750 -410,1000 -260,260 -610,420 -1000,420 -390,0 -740,-160 -1000,-420 -250,-250 -410,-610 -410,-1000 0,-380 160,-740 410,-990 260,-260 610,-420 1000,-420zm970 440c-250,-250 -590,-400 -970,-400 -380,0 -720,150 -970,400 -250,250 -400,600 -400,970 0,380 150,730 400,980 250,240 590,400 970,400 380,0 720,-160 970,-400 250,-250 410,-600 410,-980 0,-370 -160,-720 -410,-970z"/>
     <path class="fil1" d="M18420 4270c-380,0 -730,160 -980,410 -240,250 -400,590 -400,970 0,380 160,720 400,970 250,250 600,400 980,400 370,0 720,-150 970,-400 250,-250 400,-590 400,-970 0,-380 -150,-720 -400,-970 -250,-250 -600,-410 -970,-410zm-1000 380c250,-260 610,-410 1000,-410 380,0 740,150 990,410 260,260 420,610 420,1000 0,390 -160,740 -420,1000 -250,250 -610,410 -990,410 -390,0 -750,-160 -1000,-410 -260,-260 -420,-610 -420,-1000 0,-390 160,-740 420,-1000z"/>
     <path class="fil1" d="M19850 2840c390,0 750,160 1000,420 260,250 420,610 420,990 0,390 -160,750 -420,1000 -250,260 -610,420 -1000,420 -380,0 -740,-160 -990,-420 -260,-250 -420,-610 -420,-1000 0,-380 160,-740 420,-990 250,-260 610,-420 990,-420zm980 440c-250,-250 -600,-400 -980,-400 -370,0 -720,150 -970,400 -250,250 -400,600 -400,970 0,380 150,730 400,980 250,240 600,400 970,400 380,0 730,-160 980,-400 240,-250 400,-600 400,-980 0,-370 -160,-720 -400,-970z"/>
     <path class="fil1" d="M21250 4270c-380,0 -720,160 -970,410 -250,250 -410,590 -410,970 0,380 160,720 410,970 250,250 590,400 970,400 380,0 720,-150 970,-400 250,-250 400,-590 400,-970 0,-380 -150,-720 -400,-970 -250,-250 -590,-410 -970,-410zm-1000 380c260,-260 610,-410 1000,-410 390,0 740,150 1000,410 250,260 410,610 410,1000 0,390 -160,740 -410,1000 -260,250 -610,410 -1000,410 -390,0 -740,-160 -1000,-410 -260,-260 -410,-610 -410,-1000 0,-390 150,-740 410,-1000z"/>
     <path class="fil1" d="M22690 2840c380,0 740,160 990,420 260,250 420,610 420,990 0,390 -160,750 -420,1000 -250,260 -610,420 -990,420 -390,0 -750,-160 -1000,-420 -260,-250 -420,-610 -420,-1000 0,-380 160,-740 420,-990 250,-260 610,-420 1000,-420zm970 440c-250,-250 -600,-400 -970,-400 -380,0 -730,150 -980,400 -240,250 -400,600 -400,970 0,380 160,730 400,980 250,240 600,400 980,400 370,0 720,-160 970,-400 250,-250 400,-600 400,-980 0,-370 -150,-720 -400,-970z"/>
     <path class="fil1" d="M24080 4270c-380,0 -720,160 -970,410 -250,250 -410,590 -410,970 0,380 160,720 410,970 250,250 590,400 970,400 380,0 720,-150 970,-400 250,-250 410,-590 410,-970 0,-380 -160,-720 -410,-970 -250,-250 -590,-410 -970,-410zm-1000 380c260,-260 610,-410 1000,-410 390,0 740,150 1000,410 250,260 410,610 410,1000 0,390 -160,740 -410,1000 -260,250 -610,410 -1000,410 -390,0 -740,-160 -1000,-410 -250,-260 -410,-610 -410,-1000 0,-390 160,-740 410,-1000z"/>
     <path class="fil1" d="M-5630 5680c390,0 740,160 990,410 260,260 420,610 420,1000 0,390 -160,740 -420,1000 -250,250 -600,410 -990,410 -390,0 -740,-160 -1000,-410 -260,-260 -420,-610 -420,-1000 0,-390 160,-740 420,-1000 260,-250 610,-410 1000,-410zm970 440c-250,-250 -590,-410 -970,-410 -380,0 -720,160 -970,410 -250,250 -410,590 -410,970 0,380 160,720 410,970 250,250 590,400 970,400 380,0 720,-150 970,-400 250,-250 400,-590 400,-970 0,-380 -150,-720 -400,-970z"/>
     <path class="fil1" d="M-4240 7110c-380,0 -720,150 -970,400 -250,250 -400,590 -400,970 0,380 150,720 400,970 250,250 590,410 970,410 380,0 720,-160 970,-410 250,-250 410,-590 410,-970 0,-380 -160,-720 -410,-970 -250,-250 -590,-400 -970,-400zm-1000 370c260,-250 610,-410 1000,-410 390,0 740,160 1000,410 250,260 410,610 410,1000 0,390 -160,740 -410,1000 -260,260 -610,420 -1000,420 -390,0 -740,-160 -1000,-420 -250,-260 -410,-610 -410,-1000 0,-390 160,-740 410,-1000z"/>
     <path class="fil1" d="M-2800 5680c390,0 740,160 1000,410 250,260 410,610 410,1000 0,390 -160,740 -410,1000 -260,250 -610,410 -1000,410 -390,0 -740,-160 -1000,-410 -250,-260 -410,-610 -410,-1000 0,-390 160,-740 410,-1000 260,-250 610,-410 1000,-410zm970 440c-250,-250 -590,-410 -970,-410 -380,0 -720,160 -970,410 -250,250 -410,590 -410,970 0,380 160,720 410,970 250,250 590,400 970,400 380,0 720,-150 970,-400 250,-250 400,-590 400,-970 0,-380 -150,-720 -400,-970z"/>
     <path class="fil1" d="M-1410 7110c-380,0 -720,150 -970,400 -250,250 -400,590 -400,970 0,380 150,720 400,970 250,250 590,410 970,410 380,0 720,-160 970,-410 250,-250 410,-590 410,-970 0,-380 -160,-720 -410,-970 -250,-250 -590,-400 -970,-400zm-990 370c250,-250 600,-410 990,-410 390,0 740,160 1000,410 260,260 420,610 420,1000 0,390 -160,740 -420,1000 -260,260 -610,420 -1000,420 -390,0 -740,-160 -990,-420 -260,-260 -420,-610 -420,-1000 0,-390 160,-740 420,-1000z"/>
     <path class="fil1" d="M30 5680c390,0 740,160 1000,410 250,260 410,610 410,1000 0,390 -160,740 -410,1000 -260,250 -610,410 -1000,410 -390,0 -740,-160 -1000,-410 -250,-260 -410,-610 -410,-1000 0,-390 160,-740 410,-1000 260,-250 610,-410 1000,-410zm970 440c-250,-250 -590,-410 -970,-410 -380,0 -720,160 -970,410 -250,250 -400,590 -400,970 0,380 150,720 400,970 250,250 590,400 970,400 380,0 720,-150 970,-400 250,-250 410,-590 410,-970 0,-380 -160,-720 -410,-970z"/>
     <path class="fil1" d="M1420 7110c-370,0 -720,150 -970,400 -250,250 -400,590 -400,970 0,380 150,720 400,970 250,250 600,410 970,410 380,0 730,-160 980,-410 250,-250 400,-590 400,-970 0,-380 -150,-720 -400,-970 -250,-250 -600,-400 -980,-400zm-990 370c250,-250 610,-410 990,-410 390,0 750,160 1000,410 260,260 420,610 420,1000 0,390 -160,740 -420,1000 -250,260 -610,420 -1000,420 -380,0 -740,-160 -990,-420 -260,-260 -420,-610 -420,-1000 0,-390 160,-740 420,-1000z"/>
     <path class="fil1" d="M2860 5680c390,0 740,160 1000,410 260,260 420,610 420,1000 0,390 -160,740 -420,1000 -260,250 -610,410 -1000,410 -390,0 -740,-160 -990,-410 -260,-260 -420,-610 -420,-1000 0,-390 160,-740 420,-1000 250,-250 600,-410 990,-410zm970 440c-250,-250 -590,-410 -970,-410 -380,0 -720,160 -970,410 -250,250 -400,590 -400,970 0,380 150,720 400,970 250,250 590,400 970,400 380,0 720,-150 970,-400 250,-250 410,-590 410,-970 0,-380 -160,-720 -410,-970z"/>
     <path class="fil1" d="M4260 7110c-380,0 -730,150 -970,400 -250,250 -410,590 -410,970 0,380 160,720 410,970 240,250 590,410 970,410 370,0 720,-160 970,-410 250,-250 400,-590 400,-970 0,-380 -150,-720 -400,-970 -250,-250 -600,-400 -970,-400zm-1000 370c260,-250 610,-410 1000,-410 390,0 740,160 990,410 260,260 420,610 420,1000 0,390 -160,740 -420,1000 -250,260 -600,420 -990,420 -390,0 -740,-160 -1000,-420 -260,-260 -420,-610 -420,-1000 0,-390 160,-740 420,-1000z"/>
     <path class="fil1" d="M5690 5680c390,0 750,160 1000,410 260,260 420,610 420,1000 0,390 -160,740 -420,1000 -250,250 -610,410 -1000,410 -380,0 -740,-160 -990,-410 -260,-260 -420,-610 -420,-1000 0,-390 160,-740 420,-1000 250,-250 610,-410 990,-410zm980 440c-250,-250 -600,-410 -980,-410 -370,0 -720,160 -970,410 -250,250 -400,590 -400,970 0,380 150,720 400,970 250,250 600,400 970,400 380,0 730,-150 980,-400 250,-250 400,-590 400,-970 0,-380 -150,-720 -400,-970z"/>
     <path class="fil1" d="M7090 7110c-380,0 -720,150 -970,400 -250,250 -410,590 -410,970 0,380 160,720 410,970 250,250 590,410 970,410 380,0 720,-160 970,-410 250,-250 400,-590 400,-970 0,-380 -150,-720 -400,-970 -250,-250 -590,-400 -970,-400zm-1000 370c260,-250 610,-410 1000,-410 390,0 740,160 1000,410 250,260 410,610 410,1000 0,390 -160,740 -410,1000 -260,260 -610,420 -1000,420 -390,0 -740,-160 -1000,-420 -260,-260 -410,-610 -410,-1000 0,-390 150,-740 410,-1000z"/>
     <path class="fil1" d="M8530 5680c390,0 740,160 990,410 260,260 420,610 420,1000 0,390 -160,740 -420,1000 -250,250 -600,410 -990,410 -390,0 -750,-160 -1000,-410 -260,-260 -420,-610 -420,-1000 0,-390 160,-740 420,-1000 250,-250 610,-410 1000,-410zm970 440c-250,-250 -600,-410 -970,-410 -380,0 -730,160 -970,410 -250,250 -410,590 -410,970 0,380 160,720 410,970 240,250 590,400 970,400 370,0 720,-150 970,-400 250,-250 400,-590 400,-970 0,-380 -150,-720 -400,-970z"/>
     <path class="fil1" d="M9920 7110c-380,0 -720,150 -970,400 -250,250 -400,590 -400,970 0,380 150,720 400,970 250,250 590,410 970,410 380,0 720,-160 970,-410 250,-250 410,-590 410,-970 0,-380 -160,-720 -410,-970 -250,-250 -590,-400 -970,-400zm-1000 370c260,-250 610,-410 1000,-410 390,0 740,160 1000,410 250,260 410,610 410,1000 0,390 -160,740 -410,1000 -260,260 -610,420 -1000,420 -390,0 -740,-160 -1000,-420 -250,-260 -410,-610 -410,-1000 0,-390 160,-740 410,-1000z"/>
     <path class="fil1" d="M11360 5680c390,0 740,160 1000,410 250,260 410,610 410,1000 0,390 -160,740 -410,1000 -260,250 -610,410 -1000,410 -390,0 -740,-160 -1000,-410 -260,-260 -410,-610 -410,-1000 0,-390 150,-740 410,-1000 260,-250 610,-410 1000,-410zm970 440c-250,-250 -590,-410 -970,-410 -380,0 -720,160 -970,410 -250,250 -410,590 -410,970 0,380 160,720 410,970 250,250 590,400 970,400 380,0 720,-150 970,-400 250,-250 400,-590 400,-970 0,-380 -150,-720 -400,-970z"/>
     <path class="fil1" d="M12750 7110c-380,0 -720,150 -970,400 -250,250 -400,590 -400,970 0,380 150,720 400,970 250,250 590,410 970,410 380,0 720,-160 970,-410 250,-250 410,-590 410,-970 0,-380 -160,-720 -410,-970 -250,-250 -590,-400 -970,-400zm-1000 370c260,-250 610,-410 1000,-410 390,0 740,160 1000,410 260,260 410,610 410,1000 0,390 -150,740 -410,1000 -260,260 -610,420 -1000,420 -390,0 -740,-160 -1000,-420 -250,-260 -410,-610 -410,-1000 0,-390 160,-740 410,-1000z"/>
     <path class="fil1" d="M14190 5680c390,0 740,160 1000,410 250,260 410,610 410,1000 0,390 -160,740 -410,1000 -260,250 -610,410 -1000,410 -390,0 -740,-160 -1000,-410 -250,-260 -410,-610 -410,-1000 0,-390 160,-740 410,-1000 260,-250 610,-410 1000,-410zm970 440c-250,-250 -590,-410 -970,-410 -380,0 -720,160 -970,410 -250,250 -400,590 -400,970 0,380 150,720 400,970 250,250 590,400 970,400 380,0 720,-150 970,-400 250,-250 410,-590 410,-970 0,-380 -160,-720 -410,-970z"/>
     <path class="fil1" d="M15580 7110c-370,0 -720,150 -970,400 -250,250 -400,590 -400,970 0,380 150,720 400,970 250,250 600,410 970,410 380,0 730,-160 980,-410 240,-250 400,-590 400,-970 0,-380 -160,-720 -400,-970 -250,-250 -600,-400 -980,-400zm-990 370c250,-250 610,-410 990,-410 390,0 750,160 1000,410 260,260 420,610 420,1000 0,390 -160,740 -420,1000 -250,260 -610,420 -1000,420 -380,0 -740,-160 -990,-420 -260,-260 -420,-610 -420,-1000 0,-390 160,-740 420,-1000z"/>
     <path class="fil1" d="M17020 5680c390,0 740,160 1000,410 260,260 410,610 410,1000 0,390 -150,740 -410,1000 -260,250 -610,410 -1000,410 -390,0 -740,-160 -1000,-410 -250,-260 -410,-610 -410,-1000 0,-390 160,-740 410,-1000 260,-250 610,-410 1000,-410zm970 440c-250,-250 -590,-410 -970,-410 -380,0 -720,160 -970,410 -250,250 -400,590 -400,970 0,380 150,720 400,970 250,250 590,400 970,400 380,0 720,-150 970,-400 250,-250 410,-590 410,-970 0,-380 -160,-720 -410,-970z"/>
     <path class="fil1" d="M18420 7110c-380,0 -730,150 -980,400 -240,250 -400,590 -400,970 0,380 160,720 400,970 250,250 600,410 980,410 370,0 720,-160 970,-410 250,-250 400,-590 400,-970 0,-380 -150,-720 -400,-970 -250,-250 -600,-400 -970,-400zm-1000 370c250,-250 610,-410 1000,-410 380,0 740,160 990,410 260,260 420,610 420,1000 0,390 -160,740 -420,1000 -250,260 -610,420 -990,420 -390,0 -750,-160 -1000,-420 -260,-260 -420,-610 -420,-1000 0,-390 160,-740 420,-1000z"/>
     <path class="fil1" d="M19850 5680c390,0 750,160 1000,410 260,260 420,610 420,1000 0,390 -160,740 -420,1000 -250,250 -610,410 -1000,410 -380,0 -740,-160 -990,-410 -260,-260 -420,-610 -420,-1000 0,-390 160,-740 420,-1000 250,-250 610,-410 990,-410zm980 440c-250,-250 -600,-410 -980,-410 -370,0 -720,160 -970,410 -250,250 -400,590 -400,970 0,380 150,720 400,970 250,250 600,400 970,400 380,0 730,-150 980,-400 240,-250 400,-590 400,-970 0,-380 -160,-720 -400,-970z"/>
     <path class="fil1" d="M21250 7110c-380,0 -720,150 -970,400 -250,250 -410,590 -410,970 0,380 160,720 410,970 250,250 590,410 970,410 380,0 720,-160 970,-410 250,-250 400,-590 400,-970 0,-380 -150,-720 -400,-970 -250,-250 -590,-400 -970,-400zm-1000 370c260,-250 610,-410 1000,-410 390,0 740,160 1000,410 250,260 410,610 410,1000 0,390 -160,740 -410,1000 -260,260 -610,420 -1000,420 -390,0 -740,-160 -1000,-420 -260,-260 -410,-610 -410,-1000 0,-390 150,-740 410,-1000z"/>
     <path class="fil1" d="M22690 5680c380,0 740,160 990,410 260,260 420,610 420,1000 0,390 -160,740 -420,1000 -250,250 -610,410 -990,410 -390,0 -750,-160 -1000,-410 -260,-260 -420,-610 -420,-1000 0,-390 160,-740 420,-1000 250,-250 610,-410 1000,-410zm970 440c-250,-250 -600,-410 -970,-410 -380,0 -730,160 -980,410 -240,250 -400,590 -400,970 0,380 160,720 400,970 250,250 600,400 980,400 370,0 720,-150 970,-400 250,-250 400,-590 400,-970 0,-380 -150,-720 -400,-970z"/>
     <path class="fil1" d="M24080 7110c-380,0 -720,150 -970,400 -250,250 -410,590 -410,970 0,380 160,720 410,970 250,250 590,410 970,410 380,0 720,-160 970,-410 250,-250 410,-590 410,-970 0,-380 -160,-720 -410,-970 -250,-250 -590,-400 -970,-400zm-1000 370c260,-250 610,-410 1000,-410 390,0 740,160 1000,410 250,260 410,610 410,1000 0,390 -160,740 -410,1000 -260,260 -610,420 -1000,420 -390,0 -740,-160 -1000,-420 -250,-260 -410,-610 -410,-1000 0,-390 160,-740 410,-1000z"/>
     <path class="fil1" d="M-5630 8510c390,0 740,160 990,420 260,250 420,600 420,990 0,390 -160,750 -420,1000 -250,260 -600,420 -990,420 -390,0 -740,-160 -1000,-420 -260,-250 -420,-610 -420,-1000 0,-390 160,-740 420,-990 260,-260 610,-420 1000,-420zm970 440c-250,-250 -590,-400 -970,-400 -380,0 -720,150 -970,400 -250,250 -410,600 -410,970 0,380 160,730 410,970 250,250 590,410 970,410 380,0 720,-160 970,-410 250,-240 400,-590 400,-970 0,-370 -150,-720 -400,-970z"/>
     <path class="fil1" d="M-4240 9940c-380,0 -720,160 -970,410 -250,250 -400,590 -400,970 0,380 150,720 400,970 250,250 590,400 970,400 380,0 720,-150 970,-400 250,-250 410,-590 410,-970 0,-380 -160,-720 -410,-970 -250,-250 -590,-410 -970,-410zm-1000 380c260,-260 610,-420 1000,-420 390,0 740,160 1000,420 250,260 410,610 410,1000 0,390 -160,740 -410,1000 -260,250 -610,410 -1000,410 -390,0 -740,-160 -1000,-410 -250,-260 -410,-610 -410,-1000 0,-390 160,-740 410,-1000z"/>
     <path class="fil1" d="M-2800 8510c390,0 740,160 1000,420 250,250 410,600 410,990 0,390 -160,750 -410,1000 -260,260 -610,420 -1000,420 -390,0 -740,-160 -1000,-420 -250,-250 -410,-610 -410,-1000 0,-390 160,-740 410,-990 260,-260 610,-420 1000,-420zm970 440c-250,-250 -590,-400 -970,-400 -380,0 -720,150 -970,400 -250,250 -410,600 -410,970 0,380 160,730 410,970 250,250 590,410 970,410 380,0 720,-160 970,-410 250,-240 400,-590 400,-970 0,-370 -150,-720 -400,-970z"/>
     <path class="fil1" d="M-1410 9940c-380,0 -720,160 -970,410 -250,250 -400,590 -400,970 0,380 150,720 400,970 250,250 590,400 970,400 380,0 720,-150 970,-400 250,-250 410,-590 410,-970 0,-380 -160,-720 -410,-970 -250,-250 -590,-410 -970,-410zm-990 380c250,-260 600,-420 990,-420 390,0 740,160 1000,420 260,260 420,610 420,1000 0,390 -160,740 -420,1000 -260,250 -610,410 -1000,410 -390,0 -740,-160 -990,-410 -260,-260 -420,-610 -420,-1000 0,-390 160,-740 420,-1000z"/>
     <path class="fil1" d="M30 8510c390,0 740,160 1000,420 250,250 410,600 410,990 0,390 -160,750 -410,1000 -260,260 -610,420 -1000,420 -390,0 -740,-160 -1000,-420 -250,-250 -410,-610 -410,-1000 0,-390 160,-740 410,-990 260,-260 610,-420 1000,-420zm970 440c-250,-250 -590,-400 -970,-400 -380,0 -720,150 -970,400 -250,250 -400,600 -400,970 0,380 150,730 400,970 250,250 590,410 970,410 380,0 720,-160 970,-410 250,-240 410,-590 410,-970 0,-370 -160,-720 -410,-970z"/>
     <path class="fil1" d="M1420 9940c-370,0 -720,160 -970,410 -250,250 -400,590 -400,970 0,380 150,720 400,970 250,250 600,400 970,400 380,0 730,-150 980,-400 250,-250 400,-590 400,-970 0,-380 -150,-720 -400,-970 -250,-250 -600,-410 -980,-410zm-990 380c250,-260 610,-420 990,-420 390,0 750,160 1000,420 260,260 420,610 420,1000 0,390 -160,740 -420,1000 -250,250 -610,410 -1000,410 -380,0 -740,-160 -990,-410 -260,-260 -420,-610 -420,-1000 0,-390 160,-740 420,-1000z"/>
     <path class="fil1" d="M2860 8510c390,0 740,160 1000,420 260,250 420,600 420,990 0,390 -160,750 -420,1000 -260,260 -610,420 -1000,420 -390,0 -740,-160 -990,-420 -260,-250 -420,-610 -420,-1000 0,-390 160,-740 420,-990 250,-260 600,-420 990,-420zm970 440c-250,-250 -590,-400 -970,-400 -380,0 -720,150 -970,400 -250,250 -400,600 -400,970 0,380 150,730 400,970 250,250 590,410 970,410 380,0 720,-160 970,-410 250,-240 410,-590 410,-970 0,-370 -160,-720 -410,-970z"/>
     <path class="fil1" d="M4260 9940c-380,0 -730,160 -970,410 -250,250 -410,590 -410,970 0,380 160,720 410,970 240,250 590,400 970,400 370,0 720,-150 970,-400 250,-250 400,-590 400,-970 0,-380 -150,-720 -400,-970 -250,-250 -600,-410 -970,-410zm-1000 380c260,-260 610,-420 1000,-420 390,0 740,160 990,420 260,260 420,610 420,1000 0,390 -160,740 -420,1000 -250,250 -600,410 -990,410 -390,0 -740,-160 -1000,-410 -260,-260 -420,-610 -420,-1000 0,-390 160,-740 420,-1000z"/>
     <path class="fil1" d="M5690 8510c390,0 750,160 1000,420 260,250 420,600 420,990 0,390 -160,750 -420,1000 -250,260 -610,420 -1000,420 -380,0 -740,-160 -990,-420 -260,-250 -420,-610 -420,-1000 0,-390 160,-740 420,-990 250,-260 610,-420 990,-420zm980 440c-250,-250 -600,-400 -980,-400 -370,0 -720,150 -970,400 -250,250 -400,600 -400,970 0,380 150,730 400,970 250,250 600,410 970,410 380,0 730,-160 980,-410 250,-240 400,-590 400,-970 0,-370 -150,-720 -400,-970z"/>
     <path class="fil1" d="M7090 9940c-380,0 -720,160 -970,410 -250,250 -410,590 -410,970 0,380 160,720 410,970 250,250 590,400 970,400 380,0 720,-150 970,-400 250,-250 400,-590 400,-970 0,-380 -150,-720 -400,-970 -250,-250 -590,-410 -970,-410zm-1000 380c260,-260 610,-420 1000,-420 390,0 740,160 1000,420 250,260 410,610 410,1000 0,390 -160,740 -410,1000 -260,250 -610,410 -1000,410 -390,0 -740,-160 -1000,-410 -260,-260 -410,-610 -410,-1000 0,-390 150,-740 410,-1000z"/>
     <path class="fil1" d="M8530 8510c390,0 740,160 990,420 260,250 420,600 420,990 0,390 -160,750 -420,1000 -250,260 -600,420 -990,420 -390,0 -750,-160 -1000,-420 -260,-250 -420,-610 -420,-1000 0,-390 160,-740 420,-990 250,-260 610,-420 1000,-420zm970 440c-250,-250 -600,-400 -970,-400 -380,0 -730,150 -970,400 -250,250 -410,600 -410,970 0,380 160,730 410,970 240,250 590,410 970,410 370,0 720,-160 970,-410 250,-240 400,-590 400,-970 0,-370 -150,-720 -400,-970z"/>
     <path class="fil1" d="M9920 9940c-380,0 -720,160 -970,410 -250,250 -400,590 -400,970 0,380 150,720 400,970 250,250 590,400 970,400 380,0 720,-150 970,-400 250,-250 410,-590 410,-970 0,-380 -160,-720 -410,-970 -250,-250 -590,-410 -970,-410zm-1000 380c260,-260 610,-420 1000,-420 390,0 740,160 1000,420 250,260 410,610 410,1000 0,390 -160,740 -410,1000 -260,250 -610,410 -1000,410 -390,0 -740,-160 -1000,-410 -250,-260 -410,-610 -410,-1000 0,-390 160,-740 410,-1000z"/>
     <path class="fil1" d="M11360 8510c390,0 740,160 1000,420 250,250 410,600 410,990 0,390 -160,750 -410,1000 -260,260 -610,420 -1000,420 -390,0 -740,-160 -1000,-420 -260,-250 -410,-610 -410,-1000 0,-390 150,-740 410,-990 260,-260 610,-420 1000,-420zm970 440c-250,-250 -590,-400 -970,-400 -380,0 -720,150 -970,400 -250,250 -410,600 -410,970 0,380 160,730 410,970 250,250 590,410 970,410 380,0 720,-160 970,-410 250,-240 400,-590 400,-970 0,-370 -150,-720 -400,-970z"/>
     <path class="fil1" d="M12750 9940c-380,0 -720,160 -970,410 -250,250 -400,590 -400,970 0,380 150,720 400,970 250,250 590,400 970,400 380,0 720,-150 970,-400 250,-250 410,-590 410,-970 0,-380 -160,-720 -410,-970 -250,-250 -590,-410 -970,-410zm-1000 380c260,-260 610,-420 1000,-420 390,0 740,160 1000,420 260,260 410,610 410,1000 0,390 -150,740 -410,1000 -260,250 -610,410 -1000,410 -390,0 -740,-160 -1000,-410 -250,-260 -410,-610 -410,-1000 0,-390 160,-740 410,-1000z"/>
     <path class="fil1" d="M14190 8510c390,0 740,160 1000,420 250,250 410,600 410,990 0,390 -160,750 -410,1000 -260,260 -610,420 -1000,420 -390,0 -740,-160 -1000,-420 -250,-250 -410,-610 -410,-1000 0,-390 160,-740 410,-990 260,-260 610,-420 1000,-420zm970 440c-250,-250 -590,-400 -970,-400 -380,0 -720,150 -970,400 -250,250 -400,600 -400,970 0,380 150,730 400,970 250,250 590,410 970,410 380,0 720,-160 970,-410 250,-240 410,-590 410,-970 0,-370 -160,-720 -410,-970z"/>
     <path class="fil1" d="M15580 9940c-370,0 -720,160 -970,410 -250,250 -400,590 -400,970 0,380 150,720 400,970 250,250 600,400 970,400 380,0 730,-150 980,-400 240,-250 400,-590 400,-970 0,-380 -160,-720 -400,-970 -250,-250 -600,-410 -980,-410zm-990 380c250,-260 610,-420 990,-420 390,0 750,160 1000,420 260,260 420,610 420,1000 0,390 -160,740 -420,1000 -250,250 -610,410 -1000,410 -380,0 -740,-160 -990,-410 -260,-260 -420,-610 -420,-1000 0,-390 160,-740 420,-1000z"/>
     <path class="fil1" d="M17020 8510c390,0 740,160 1000,420 260,250 410,600 410,990 0,390 -150,750 -410,1000 -260,260 -610,420 -1000,420 -390,0 -740,-160 -1000,-420 -250,-250 -410,-610 -410,-1000 0,-390 160,-740 410,-990 260,-260 610,-420 1000,-420zm970 440c-250,-250 -590,-400 -970,-400 -380,0 -720,150 -970,400 -250,250 -400,600 -400,970 0,380 150,730 400,970 250,250 590,410 970,410 380,0 720,-160 970,-410 250,-240 410,-590 410,-970 0,-370 -160,-720 -410,-970z"/>
     <path class="fil1" d="M18420 9940c-380,0 -730,160 -980,410 -240,250 -400,590 -400,970 0,380 160,720 400,970 250,250 600,400 980,400 370,0 720,-150 970,-400 250,-250 400,-590 400,-970 0,-380 -150,-720 -400,-970 -250,-250 -600,-410 -970,-410zm-1000 380c250,-260 610,-420 1000,-420 380,0 740,160 990,420 260,260 420,610 420,1000 0,390 -160,740 -420,1000 -250,250 -610,410 -990,410 -390,0 -750,-160 -1000,-410 -260,-260 -420,-610 -420,-1000 0,-390 160,-740 420,-1000z"/>
     <path class="fil1" d="M19850 8510c390,0 750,160 1000,420 260,250 420,600 420,990 0,390 -160,750 -420,1000 -250,260 -610,420 -1000,420 -380,0 -740,-160 -990,-420 -260,-250 -420,-610 -420,-1000 0,-390 160,-740 420,-990 250,-260 610,-420 990,-420zm980 440c-250,-250 -600,-400 -980,-400 -370,0 -720,150 -970,400 -250,250 -400,600 -400,970 0,380 150,730 400,970 250,250 600,410 970,410 380,0 730,-160 980,-410 240,-240 400,-590 400,-970 0,-370 -160,-720 -400,-970z"/>
     <path class="fil1" d="M21250 9940c-380,0 -720,160 -970,410 -250,250 -410,590 -410,970 0,380 160,720 410,970 250,250 590,400 970,400 380,0 720,-150 970,-400 250,-250 400,-590 400,-970 0,-380 -150,-720 -400,-970 -250,-250 -590,-410 -970,-410zm-1000 380c260,-260 610,-420 1000,-420 390,0 740,160 1000,420 250,260 410,610 410,1000 0,390 -160,740 -410,1000 -260,250 -610,410 -1000,410 -390,0 -740,-160 -1000,-410 -260,-260 -410,-610 -410,-1000 0,-390 150,-740 410,-1000z"/>
     <path class="fil1" d="M22690 8510c380,0 740,160 990,420 260,250 420,600 420,990 0,390 -160,750 -420,1000 -250,260 -610,420 -990,420 -390,0 -750,-160 -1000,-420 -260,-250 -420,-610 -420,-1000 0,-390 160,-740 420,-990 250,-260 610,-420 1000,-420zm970 440c-250,-250 -600,-400 -970,-400 -380,0 -730,150 -980,400 -240,250 -400,600 -400,970 0,380 160,730 400,970 250,250 600,410 980,410 370,0 720,-160 970,-410 250,-240 400,-590 400,-970 0,-370 -150,-720 -400,-970z"/>
     <path class="fil1" d="M24080 9940c-380,0 -720,160 -970,410 -250,250 -410,590 -410,970 0,380 160,720 410,970 250,250 590,400 970,400 380,0 720,-150 970,-400 250,-250 410,-590 410,-970 0,-380 -160,-720 -410,-970 -250,-250 -590,-410 -970,-410zm-1000 380c260,-260 610,-420 1000,-420 390,0 740,160 1000,420 250,260 410,610 410,1000 0,390 -160,740 -410,1000 -260,250 -610,410 -1000,410 -390,0 -740,-160 -1000,-410 -250,-260 -410,-610 -410,-1000 0,-390 160,-740 410,-1000z"/>
     <path class="fil1" d="M-5630 11350c390,0 740,150 990,410 260,260 420,610 420,1000 0,390 -160,740 -420,1000 -250,250 -600,410 -990,410 -390,0 -740,-160 -1000,-410 -260,-260 -420,-610 -420,-1000 0,-390 160,-740 420,-1000 260,-260 610,-410 1000,-410zm970 440c-250,-250 -590,-410 -970,-410 -380,0 -720,160 -970,410 -250,250 -410,590 -410,970 0,380 160,720 410,970 250,250 590,400 970,400 380,0 720,-150 970,-400 250,-250 400,-590 400,-970 0,-380 -150,-720 -400,-970z"/>
     <path class="fil1" d="M-4240 12780c-380,0 -720,150 -970,400 -250,250 -400,590 -400,970 0,380 150,720 400,970 250,250 590,410 970,410 380,0 720,-160 970,-410 250,-250 410,-590 410,-970 0,-380 -160,-720 -410,-970 -250,-250 -590,-400 -970,-400zm-1000 370c260,-250 610,-410 1000,-410 390,0 740,160 1000,410 250,260 410,610 410,1000 0,390 -160,740 -410,1000 -260,260 -610,410 -1000,410 -390,0 -740,-150 -1000,-410 -250,-260 -410,-610 -410,-1000 0,-390 160,-740 410,-1000z"/>
     <path class="fil1" d="M-2800 11350c390,0 740,150 1000,410 250,260 410,610 410,1000 0,390 -160,740 -410,1000 -260,250 -610,410 -1000,410 -390,0 -740,-160 -1000,-410 -250,-260 -410,-610 -410,-1000 0,-390 160,-740 410,-1000 260,-260 610,-410 1000,-410zm970 440c-250,-250 -590,-410 -970,-410 -380,0 -720,160 -970,410 -250,250 -410,590 -410,970 0,380 160,720 410,970 250,250 590,400 970,400 380,0 720,-150 970,-400 250,-250 400,-590 400,-970 0,-380 -150,-720 -400,-970z"/>
     <path class="fil1" d="M-1410 12780c-380,0 -720,150 -970,400 -250,250 -400,590 -400,970 0,380 150,720 400,970 250,250 590,410 970,410 380,0 720,-160 970,-410 250,-250 410,-590 410,-970 0,-380 -160,-720 -410,-970 -250,-250 -590,-400 -970,-400zm-990 370c250,-250 600,-410 990,-410 390,0 740,160 1000,410 260,260 420,610 420,1000 0,390 -160,740 -420,1000 -260,260 -610,410 -1000,410 -390,0 -740,-150 -990,-410 -260,-260 -420,-610 -420,-1000 0,-390 160,-740 420,-1000z"/>
     <path class="fil1" d="M30 11350c390,0 740,150 1000,410 250,260 410,610 410,1000 0,390 -160,740 -410,1000 -260,250 -610,410 -1000,410 -390,0 -740,-160 -1000,-410 -250,-260 -410,-610 -410,-1000 0,-390 160,-740 410,-1000 260,-260 610,-410 1000,-410zm970 440c-250,-250 -590,-410 -970,-410 -380,0 -720,160 -970,410 -250,250 -400,590 -400,970 0,380 150,720 400,970 250,250 590,400 970,400 380,0 720,-150 970,-400 250,-250 410,-590 410,-970 0,-380 -160,-720 -410,-970z"/>
     <path class="fil1" d="M1420 12780c-370,0 -720,150 -970,400 -250,250 -400,590 -400,970 0,380 150,720 400,970 250,250 600,410 970,410 380,0 730,-160 980,-410 250,-250 400,-590 400,-970 0,-380 -150,-720 -400,-970 -250,-250 -600,-400 -980,-400zm-990 370c250,-250 610,-410 990,-410 390,0 750,160 1000,410 260,260 420,610 420,1000 0,390 -160,740 -420,1000 -250,260 -610,410 -1000,410 -380,0 -740,-150 -990,-410 -260,-260 -420,-610 -420,-1000 0,-390 160,-740 420,-1000z"/>
     <path class="fil1" d="M2860 11350c390,0 740,150 1000,410 260,260 420,610 420,1000 0,390 -160,740 -420,1000 -260,250 -610,410 -1000,410 -390,0 -740,-160 -990,-410 -260,-260 -420,-610 -420,-1000 0,-390 160,-740 420,-1000 250,-260 600,-410 990,-410zm970 440c-250,-250 -590,-410 -970,-410 -380,0 -720,160 -970,410 -250,250 -400,590 -400,970 0,380 150,720 400,970 250,250 590,400 970,400 380,0 720,-150 970,-400 250,-250 410,-590 410,-970 0,-380 -160,-720 -410,-970z"/>
     <path class="fil1" d="M4260 12780c-380,0 -730,150 -970,400 -250,250 -410,590 -410,970 0,380 160,720 410,970 240,250 590,410 970,410 370,0 720,-160 970,-410 250,-250 400,-590 400,-970 0,-380 -150,-720 -400,-970 -250,-250 -600,-400 -970,-400zm-1000 370c260,-250 610,-410 1000,-410 390,0 740,160 990,410 260,260 420,610 420,1000 0,390 -160,740 -420,1000 -250,260 -600,410 -990,410 -390,0 -740,-150 -1000,-410 -260,-260 -420,-610 -420,-1000 0,-390 160,-740 420,-1000z"/>
     <path class="fil1" d="M5690 11350c390,0 750,150 1000,410 260,260 420,610 420,1000 0,390 -160,740 -420,1000 -250,250 -610,410 -1000,410 -380,0 -740,-160 -990,-410 -260,-260 -420,-610 -420,-1000 0,-390 160,-740 420,-1000 250,-260 610,-410 990,-410zm980 440c-250,-250 -600,-410 -980,-410 -370,0 -720,160 -970,410 -250,250 -400,590 -400,970 0,380 150,720 400,970 250,250 600,400 970,400 380,0 730,-150 980,-400 250,-250 400,-590 400,-970 0,-380 -150,-720 -400,-970z"/>
     <path class="fil1" d="M7090 12780c-380,0 -720,150 -970,400 -250,250 -410,590 -410,970 0,380 160,720 410,970 250,250 590,410 970,410 380,0 720,-160 970,-410 250,-250 400,-590 400,-970 0,-380 -150,-720 -400,-970 -250,-250 -590,-400 -970,-400zm-1000 370c260,-250 610,-410 1000,-410 390,0 740,160 1000,410 250,260 410,610 410,1000 0,390 -160,740 -410,1000 -260,260 -610,410 -1000,410 -390,0 -740,-150 -1000,-410 -260,-260 -410,-610 -410,-1000 0,-390 150,-740 410,-1000z"/>
     <path class="fil1" d="M8530 11350c390,0 740,150 990,410 260,260 420,610 420,1000 0,390 -160,740 -420,1000 -250,250 -600,410 -990,410 -390,0 -750,-160 -1000,-410 -260,-260 -420,-610 -420,-1000 0,-390 160,-740 420,-1000 250,-260 610,-410 1000,-410zm970 440c-250,-250 -600,-410 -970,-410 -380,0 -730,160 -970,410 -250,250 -410,590 -410,970 0,380 160,720 410,970 240,250 590,400 970,400 370,0 720,-150 970,-400 250,-250 400,-590 400,-970 0,-380 -150,-720 -400,-970z"/>
     <path class="fil1" d="M9920 12780c-380,0 -720,150 -970,400 -250,250 -400,590 -400,970 0,380 150,720 400,970 250,250 590,410 970,410 380,0 720,-160 970,-410 250,-250 410,-590 410,-970 0,-380 -160,-720 -410,-970 -250,-250 -590,-400 -970,-400zm-1000 370c260,-250 610,-410 1000,-410 390,0 740,160 1000,410 250,260 410,610 410,1000 0,390 -160,740 -410,1000 -260,260 -610,410 -1000,410 -390,0 -740,-150 -1000,-410 -250,-260 -410,-610 -410,-1000 0,-390 160,-740 410,-1000z"/>
     <path class="fil1" d="M11360 11350c390,0 740,150 1000,410 250,260 410,610 410,1000 0,390 -160,740 -410,1000 -260,250 -610,410 -1000,410 -390,0 -740,-160 -1000,-410 -260,-260 -410,-610 -410,-1000 0,-390 150,-740 410,-1000 260,-260 610,-410 1000,-410zm970 440c-250,-250 -590,-410 -970,-410 -380,0 -720,160 -970,410 -250,250 -410,590 -410,970 0,380 160,720 410,970 250,250 590,400 970,400 380,0 720,-150 970,-400 250,-250 400,-590 400,-970 0,-380 -150,-720 -400,-970z"/>
     <path class="fil1" d="M12750 12780c-380,0 -720,150 -970,400 -250,250 -400,590 -400,970 0,380 150,720 400,970 250,250 590,410 970,410 380,0 720,-160 970,-410 250,-250 410,-590 410,-970 0,-380 -160,-720 -410,-970 -250,-250 -590,-400 -970,-400zm-1000 370c260,-250 610,-410 1000,-410 390,0 740,160 1000,410 260,260 410,610 410,1000 0,390 -150,740 -410,1000 -260,260 -610,410 -1000,410 -390,0 -740,-150 -1000,-410 -250,-260 -410,-610 -410,-1000 0,-390 160,-740 410,-1000z"/>
     <path class="fil1" d="M14190 11350c390,0 740,150 1000,410 250,260 410,610 410,1000 0,390 -160,740 -410,1000 -260,250 -610,410 -1000,410 -390,0 -740,-160 -1000,-410 -250,-260 -410,-610 -410,-1000 0,-390 160,-740 410,-1000 260,-260 610,-410 1000,-410zm970 440c-250,-250 -590,-410 -970,-410 -380,0 -720,160 -970,410 -250,250 -400,590 -400,970 0,380 150,720 400,970 250,250 590,400 970,400 380,0 720,-150 970,-400 250,-250 410,-590 410,-970 0,-380 -160,-720 -410,-970z"/>
     <path class="fil1" d="M15580 12780c-370,0 -720,150 -970,400 -250,250 -400,590 -400,970 0,380 150,720 400,970 250,250 600,410 970,410 380,0 730,-160 980,-410 240,-250 400,-590 400,-970 0,-380 -160,-720 -400,-970 -250,-250 -600,-400 -980,-400zm-990 370c250,-250 610,-410 990,-410 390,0 750,160 1000,410 260,260 420,610 420,1000 0,390 -160,740 -420,1000 -250,260 -610,410 -1000,410 -380,0 -740,-150 -990,-410 -260,-260 -420,-610 -420,-1000 0,-390 160,-740 420,-1000z"/>
     <path class="fil1" d="M17020 11350c390,0 740,150 1000,410 260,260 410,610 410,1000 0,390 -150,740 -410,1000 -260,250 -610,410 -1000,410 -390,0 -740,-160 -1000,-410 -250,-260 -410,-610 -410,-1000 0,-390 160,-740 410,-1000 260,-260 610,-410 1000,-410zm970 440c-250,-250 -590,-410 -970,-410 -380,0 -720,160 -970,410 -250,250 -400,590 -400,970 0,380 150,720 400,970 250,250 590,400 970,400 380,0 720,-150 970,-400 250,-250 410,-590 410,-970 0,-380 -160,-720 -410,-970z"/>
     <path class="fil1" d="M18420 12780c-380,0 -730,150 -980,400 -240,250 -400,590 -400,970 0,380 160,720 400,970 250,250 600,410 980,410 370,0 720,-160 970,-410 250,-250 400,-590 400,-970 0,-380 -150,-720 -400,-970 -250,-250 -600,-400 -970,-400zm-1000 370c250,-250 610,-410 1000,-410 380,0 740,160 990,410 260,260 420,610 420,1000 0,390 -160,740 -420,1000 -250,260 -610,410 -990,410 -390,0 -750,-150 -1000,-410 -260,-260 -420,-610 -420,-1000 0,-390 160,-740 420,-1000z"/>
     <path class="fil1" d="M19850 11350c390,0 750,150 1000,410 260,260 420,610 420,1000 0,390 -160,740 -420,1000 -250,250 -610,410 -1000,410 -380,0 -740,-160 -990,-410 -260,-260 -420,-610 -420,-1000 0,-390 160,-740 420,-1000 250,-260 610,-410 990,-410zm980 440c-250,-250 -600,-410 -980,-410 -370,0 -720,160 -970,410 -250,250 -400,590 -400,970 0,380 150,720 400,970 250,250 600,400 970,400 380,0 730,-150 980,-400 240,-250 400,-590 400,-970 0,-380 -160,-720 -400,-970z"/>
     <path class="fil1" d="M21250 12780c-380,0 -720,150 -970,400 -250,250 -410,590 -410,970 0,380 160,720 410,970 250,250 590,410 970,410 380,0 720,-160 970,-410 250,-250 400,-590 400,-970 0,-380 -150,-720 -400,-970 -250,-250 -590,-400 -970,-400zm-1000 370c260,-250 610,-410 1000,-410 390,0 740,160 1000,410 250,260 410,610 410,1000 0,390 -160,740 -410,1000 -260,260 -610,410 -1000,410 -390,0 -740,-150 -1000,-410 -260,-260 -410,-610 -410,-1000 0,-390 150,-740 410,-1000z"/>
     <path class="fil1" d="M22690 11350c380,0 740,150 990,410 260,260 420,610 420,1000 0,390 -160,740 -420,1000 -250,250 -610,410 -990,410 -390,0 -750,-160 -1000,-410 -260,-260 -420,-610 -420,-1000 0,-390 160,-740 420,-1000 250,-260 610,-410 1000,-410zm970 440c-250,-250 -600,-410 -970,-410 -380,0 -730,160 -980,410 -240,250 -400,590 -400,970 0,380 160,720 400,970 250,250 600,400 980,400 370,0 720,-150 970,-400 250,-250 400,-590 400,-970 0,-380 -150,-720 -400,-970z"/>
     <path class="fil1" d="M24080 12780c-380,0 -720,150 -970,400 -250,250 -410,590 -410,970 0,380 160,720 410,970 250,250 590,410 970,410 380,0 720,-160 970,-410 250,-250 410,-590 410,-970 0,-380 -160,-720 -410,-970 -250,-250 -590,-400 -970,-400zm-1000 370c260,-250 610,-410 1000,-410 390,0 740,160 1000,410 250,260 410,610 410,1000 0,390 -160,740 -410,1000 -260,260 -610,410 -1000,410 -390,0 -740,-150 -1000,-410 -250,-260 -410,-610 -410,-1000 0,-390 160,-740 410,-1000z"/>
    </g>
   </g>
  </g>
  <polygon class="fil2" points="0,0 2850,0 2850,2850 0,2850 "/>
 </g>
</svg>
