<?xml version="1.0" encoding="UTF-8"?>
<!DOCTYPE svg PUBLIC "-//W3C//DTD SVG 1.1//EN" "http://www.w3.org/Graphics/SVG/1.1/DTD/svg11.dtd">
<!-- Creator: CorelDRAW 2018 (64 Bit) -->
<svg xmlns="http://www.w3.org/2000/svg" xml:space="preserve" width="215px" height="40px" version="1.1" style="shape-rendering:geometricPrecision; text-rendering:geometricPrecision; image-rendering:optimizeQuality; fill-rule:evenodd; clip-rule:evenodd"
viewBox="0 0 116710 21810"
 xmlns:xlink="http://www.w3.org/1999/xlink">
 <defs>
  <style type="text/css">
   <![CDATA[
    .fil0 {fill:#FEFEFE}
    .fil1 {fill:#00FEB6}
    .fil2 {fill:#5822DC;fill-rule:nonzero}
   ]]>
  </style>
 </defs>
 <g id="Camada_x0020_1">
  <metadata id="CorelCorpID_0Corel-Layer"/>
  <path class="fil0" d="M15850 7760c4450,-150 6740,2860 6860,7160l0 2560 -10 0 0 2210 0 70c0,30 0,60 0,100 0,1050 -850,1910 -1910,1910 -1050,0 -1910,-860 -1910,-1910 0,-20 0,-40 0,-70 0,-30 0,-60 0,-100l0 -2210 0 0 0 -3340 0 -50c-50,-1470 -1250,-2630 -2720,-2630 -1470,0 -2820,1200 -2870,2670l0 50 0 3340 0 0 0 2140c0,70 10,130 10,200 0,1050 -860,1910 -1910,1910 -950,0 -1740,-690 -1890,-1600 -30,-150 -50,-310 -50,-480l0 -2210 0 0 0 -3340 0 -50c-40,-1470 -1390,-2630 -2860,-2630 -1460,0 -2670,1160 -2720,2630l0 50 0 3340 0 0 0 2210c0,120 -10,240 -30,350 -100,970 -910,1730 -1910,1730 -1050,0 -1900,-860 -1900,-1910l0 -30c-10,-40 -20,-90 -20,-140l0 -2210 0 0 0 -2560c-180,-4570 2930,-7160 6900,-7160 1690,0 3240,590 4470,1570 1220,-980 2780,-1570 4470,-1570zm13370 -200c2920,-600 5780,690 7330,3030 1000,-1510 2580,-2640 4490,-3030 3840,-790 7590,1690 8380,5530 780,3840 -1700,7590 -5540,8370 -2550,520 -5060,-400 -6690,-2200l0 0 0 0c-160,-170 -310,-360 -450,-550l-210 -250 0 0c-1810,-2590 -1650,-5500 -4010,-6870 -730,-470 -1650,-670 -2580,-480 -1880,380 -3090,2210 -2710,4090 390,1880 2220,3100 4100,2710 1700,-340 2850,-1870 2780,-3550 580,1370 1020,3030 2100,4540 -1000,1280 -2440,2210 -4160,2560 -3840,790 -7580,-1690 -8370,-5530 -780,-3840 1700,-7590 5540,-8370zm12550 3550c1880,-390 3710,830 4100,2710 380,1880 -830,3710 -2710,4090 -1880,390 -3720,-830 -4100,-2710 -380,-1880 830,-3710 2710,-4090zm14800 -3610c110,-30 240,-40 360,-40l10 -10 0 0c110,0 210,-10 310,-10l10 0 10 0 10 0 0 0c80,-10 170,-10 250,-10 3970,0 7190,3220 7190,7190 0,3970 -3220,7190 -7190,7190 -2770,0 -5180,-1570 -6380,-3860l-20 -40 -20 -30c-490,-950 -770,-2020 -790,-3160l0 0 0 -130 0 -10310 0 0 0 -2210c0,-30 0,-60 0,-90 0,-50 0,-100 0,-160 0,-1000 810,-1820 1820,-1820 1010,0 1830,820 1830,1820l0 40 0 0 0 6510c790,-450 1660,-750 2600,-870zm430 10560l40 10c140,20 290,30 440,30 1930,0 3500,-1570 3500,-3510 0,-800 -270,-1550 -730,-2140 -640,-800 -1620,-1310 -2720,-1310 -1930,0 -3490,1560 -3490,3480 0,1740 1280,3190 2960,3440z"/>
  <path class="fil1" d="M73440 7660l36240 0c3870,0 7030,3160 7030,7030l0 0c0,3870 -3160,7040 -7030,7040l-36240 0c-3870,0 -7030,-3170 -7030,-7040l0 0c0,-3870 3160,-7030 7030,-7030z"/>
  <path class="fil2" d="M72840 17480c0,390 300,700 690,700 310,0 560,-180 690,-470l470 -1120 3000 0 460 1070c130,310 370,520 720,520 390,0 710,-320 710,-720 0,-100 -30,-200 -80,-300l-2380 -5360c-160,-370 -450,-600 -860,-600l-90 0c-410,0 -710,230 -870,600l-2380 5360c-50,100 -80,210 -80,320zm2410 -2210l940 -2250 940 2250 -1880 0zm6540 2100c0,420 330,750 750,750l1910 0c2140,0 3620,-1490 3620,-3400l0 -20c0,-1920 -1480,-3390 -3620,-3390l-1910 0c-420,0 -750,330 -750,750l0 5310zm1500 -600l0 -4110 1160 0c1220,0 2050,850 2050,2060l0 20c0,1200 -830,2030 -2050,2030l-1160 0zm7150 680c0,410 320,730 730,730 410,0 740,-320 740,-730l0 -3390 1290 2000c160,230 350,380 630,380 270,0 460,-150 620,-380l1310 -2020 0 3390c0,410 330,750 740,750 420,0 750,-330 750,-750l0 -5410c0,-420 -330,-750 -750,-750l-160 0c-310,0 -520,130 -680,380l-1810 2960 -1810 -2950c-140,-220 -360,-390 -680,-390l-170 0c-420,0 -750,330 -750,750l0 5430zm9550 -20c0,420 330,750 750,750 420,0 750,-330 750,-750l0 -5430c0,-420 -330,-750 -750,-750 -420,0 -750,330 -750,750l0 5430zm4240 10c0,410 330,740 740,740 410,0 740,-330 740,-740l0 -3650 3000 3930c200,260 420,440 780,440l50 0c410,0 740,-330 740,-750l0 -5420c0,-410 -330,-740 -740,-740 -400,0 -730,330 -730,740l0 3510 -2890 -3790c-210,-260 -420,-440 -780,-440l-160 0c-420,0 -750,330 -750,750l0 5420z"/>
 </g>
</svg>
