<?xml version="1.0" encoding="UTF-8"?>
<!DOCTYPE svg PUBLIC "-//W3C//DTD SVG 1.1//EN" "http://www.w3.org/Graphics/SVG/1.1/DTD/svg11.dtd">
<!-- Creator: CorelDRAW 2018 (64 Bit) -->
<svg xmlns="http://www.w3.org/2000/svg" xml:space="preserve" width="397px" height="74px" version="1.1" style="shape-rendering:geometricPrecision; text-rendering:geometricPrecision; image-rendering:optimizeQuality; fill-rule:evenodd; clip-rule:evenodd"
viewBox="0 0 234750 43870"
 xmlns:xlink="http://www.w3.org/1999/xlink">
 <defs>
  <style type="text/css">
   <![CDATA[
    .fil1 {fill:#00FEB6}
    .fil0 {fill:#5822DC}
    .fil2 {fill:#5822DC;fill-rule:nonzero}
   ]]>
  </style>
 </defs>
 <g id="Camada_x0020_1">
  <metadata id="CorelCorpID_0Corel-Layer"/>
  <g id="_1903521108016">
   <path class="fil0" d="M31880 15610c8960,-300 13550,5750 13800,14400l0 5150 -20 0 0 4450 -10 130c10,60 10,130 10,200 0,2120 -1720,3840 -3840,3840 -2120,0 -3840,-1720 -3840,-3840 0,-40 0,-80 0,-130 0,-60 0,-130 0,-200l0 -4450 0 0 0 -6710 -10 -110c-90,-2950 -2510,-5300 -5470,-5300 -2950,0 -5670,2430 -5760,5380l-10 110 0 6710 -10 0 0 4300c20,140 20,270 20,400 0,2120 -1720,3840 -3840,3840 -1900,0 -3480,-1390 -3790,-3200 -60,-310 -90,-640 -90,-970l0 -4450 0 0 0 -6710 -10 -110c-90,-2950 -2790,-5300 -5750,-5300 -2950,0 -5380,2350 -5470,5300l0 110 0 6710 -20 0 0 4450c0,240 -20,470 -60,700 -180,1950 -1820,3470 -3820,3470 -2120,0 -3840,-1720 -3840,-3840l0 -50c-10,-90 -20,-190 -30,-280l0 -4450 0 0 0 -5150c-370,-9200 5890,-14400 13870,-14400 3400,0 6530,1190 8990,3160 2470,-1970 5590,-3160 9000,-3160z"/>
   <path class="fil0" d="M113770 15080c240,-50 490,-80 740,-80l30 -10 0 0c200,-10 410,-30 610,-30l20 0 20 0 10 0 20 0c160,-10 320,-10 490,-10 7980,0 14460,6470 14460,14460 0,7980 -6480,14460 -14460,14460 -5570,0 -10410,-3150 -12820,-7770l-50 -80 -30 -60c-980,-1910 -1560,-4060 -1600,-6350l0 0 0 -260 0 -20740 10 0 0 -4450c0,-70 0,-130 0,-190 -10,-100 -10,-200 -10,-300 0,-2030 1640,-3670 3670,-3670 2020,0 3670,1640 3670,3670l0 60 10 0 0 13110c1570,-900 3340,-1510 5210,-1760zm870 21250l80 10c290,40 590,60 890,60 3890,0 7050,-3160 7050,-7050 0,-1620 -550,-3110 -1470,-4300 -1280,-1610 -3260,-2650 -5480,-2650 -3870,0 -7010,3140 -7010,7010 0,3500 2580,6410 5940,6920z"/>
   <path class="fil0" d="M58770 15200c5870,-1200 11630,1390 14750,6090 2010,-3040 5180,-5310 9040,-6090 7720,-1580 15260,3410 16830,11130 1580,7730 -3410,15270 -11130,16840 -5130,1050 -10180,-800 -13450,-4420l0 0 0 0c-320,-360 -630,-730 -910,-1120l-420 -510 0 0c-3640,-5210 -3330,-11060 -8070,-13800 -1480,-960 -3320,-1360 -5180,-980 -3780,770 -6220,4460 -5450,8240 770,3780 4460,6220 8240,5450 3410,-700 5730,-3770 5580,-7140 1170,2740 2050,6090 4230,9130 -2020,2560 -4910,4450 -8360,5150 -7720,1580 -15260,-3410 -16830,-11130 -1580,-7730 3410,-15270 11130,-16840zm25240 7140c3780,-770 7470,1670 8240,5450 770,3780 -1670,7470 -5450,8240 -3780,770 -7470,-1670 -8240,-5450 -770,-3780 1670,-7470 5450,-8240z"/>
   <path class="fil1" d="M147720 15400l72880 0c7780,0 14150,6370 14150,14150l0 0c0,7780 -6370,14150 -14150,14150l-72880 0c-7780,0 -14150,-6370 -14150,-14150l0 0c0,-7780 6370,-14150 14150,-14150z"/>
   <path class="fil2" d="M146500 35160c0,780 610,1400 1390,1400 620,0 1130,-350 1390,-930l960 -2250 6020 0 920 2150c280,620 740,1030 1450,1030 800,0 1430,-640 1430,-1440 0,-200 -60,-390 -160,-610l-4770 -10780c-340,-740 -920,-1190 -1740,-1190l-180 0c-820,0 -1430,450 -1760,1190l-4780 10780c-90,220 -170,430 -170,650zm4850 -4450l1900 -4520 1900 4520 -3800 0zm13170 4230c0,840 660,1510 1500,1510l3840 0c4300,0 7280,-3000 7280,-6850l0 -40c0,-3850 -2980,-6810 -7280,-6810l-3840 0c-840,0 -1500,670 -1500,1510l0 10680zm3010 -1210l0 -8260 2330 0c2460,0 4130,1700 4130,4130l0 40c0,2420 -1670,4090 -4130,4090l-2330 0zm14380 1370c0,820 650,1460 1470,1460 820,0 1490,-640 1490,-1460l0 -6810 2600 4010c310,470 700,760 1250,760 550,0 940,-290 1250,-760l2640 -4070 0 6830c0,820 670,1500 1490,1500 840,0 1510,-660 1510,-1500l0 -10880c0,-840 -670,-1510 -1510,-1510l-330 0c-610,0 -1040,260 -1350,770l-3660 5940 -3640 -5920c-270,-450 -720,-790 -1370,-790l-330 0c-840,0 -1510,670 -1510,1510l0 10920zm19210 -40c0,840 670,1500 1510,1500 840,0 1510,-660 1510,-1500l0 -10920c0,-840 -670,-1510 -1510,-1510 -840,0 -1510,670 -1510,1510l0 10920zm8540 20c0,820 660,1480 1480,1480 820,0 1490,-660 1490,-1480l0 -7340 6020 7900c420,530 850,880 1570,880l100 0c840,0 1500,-660 1500,-1500l0 -10900c0,-820 -660,-1490 -1480,-1490 -820,0 -1490,670 -1490,1490l0 7060 -5810 -7630c-410,-520 -840,-880 -1570,-880l-310 0c-840,0 -1500,670 -1500,1510l0 10900z"/>
  </g>
 </g>
</svg>
